<svg id="Layer_14" data-name="Layer 14" xmlns="http://www.w3.org/2000/svg" xmlns:xlink="http://www.w3.org/1999/xlink" viewBox="0 0 376.55 127.21"><defs><style>.cls-1{fill:url(#linear-gradient);}.cls-2{fill:#8ed4da;}.cls-3{fill:#245972;}.cls-4{fill:#231f20;}</style><linearGradient id="linear-gradient" x1="226.39" y1="675.55" x2="480.04" y2="675.55" gradientTransform="translate(40.18 -18.33) rotate(3.58)" gradientUnits="userSpaceOnUse"><stop offset="0" stop-color="#8ed4da"/><stop offset="0.13" stop-color="#8ac8d4"/><stop offset="0.37" stop-color="#7fa8c4"/><stop offset="0.68" stop-color="#6e75ab"/><stop offset="1" stop-color="#5a3a8d"/></linearGradient></defs><path class="cls-1" d="M222,701.49s27.63,24.5,68.43,5.42c0,0,25.13-7.6,50.95-43.37s62.51-45.79,62.51-45.79a63.85,63.85,0,0,1,45.58,2.48A55,55,0,0,1,479,653.67l.09.29s-25.86-18.81-55.09-10-50,26.78-65.9,47.58-26.85,28.44-26.85,28.44-29.87,25.55-63.32,20.63C267.93,740.57,232.68,738,222,701.49Z" transform="translate(-132.65 -614.68)"/><path class="cls-2" d="M273,710.78a45.61,45.61,0,0,1-13,1.33c-15.77-.65-34.82-8.2-38.55-15.82-4.37-8.95-5.49-25.66-5.1-35.12.66-15.76,10.89-33,23.38-40.67,7.49-4.63,14.72-3.51,24.18-3.11a46,46,0,0,1,8.2,1.07,1.41,1.41,0,0,1,.18,2.7,45.74,45.74,0,0,0-30,41.08C241.41,683,254.36,704.42,273,710.78Z" transform="translate(-132.65 -614.68)"/><path class="cls-3" d="M366.11,687c-3.54,3.72-9.86,11.11-20.32,25.51,0,0,16.47,30.45,66.2,29.41,40.29-.85,49.16-31.54,51.07-43.16a1.39,1.39,0,0,0-2.36-1.2c-5.92,6-20.82,18.76-43.21,21-13.37,1.34-26.83-2.61-36.77-11.65-5.06-4.6-9.44-10.74-10.52-18.59A2.39,2.39,0,0,0,366.11,687Z" transform="translate(-132.65 -614.68)"/><path class="cls-4" d="M132.65,671V652.92h5.15V671a12.89,12.89,0,1,0,25.78,0V652.92h5.16V671a18,18,0,1,1-36.09,0Z" transform="translate(-132.65 -614.68)"/><path class="cls-4" d="M176.47,676.12V689h-5.16V676.12a12.89,12.89,0,0,1,25.78,0V689h-5.15V676.12a7.74,7.74,0,0,0-15.47,0Z" transform="translate(-132.65 -614.68)"/><path class="cls-4" d="M204.82,689h-5.15V652.92h5.15Z" transform="translate(-132.65 -614.68)"/><path class="cls-4" d="M207.4,658.08v-5.16h5.16v5.16Zm5.16,5.15V689H207.4V663.23Z" transform="translate(-132.65 -614.68)"/><path class="cls-4" d="M235.76,676.12a7.74,7.74,0,0,0-15.47,0V689h-5.16V676.12a12.9,12.9,0,0,1,22-9.12,16.39,16.39,0,0,1,1.18,1.36,15.13,15.13,0,0,1,1.21-1.36,12.89,12.89,0,0,1,22,9.12V689h-5.15V676.12a7.74,7.74,0,0,0-15.47,0V689h-5.15Z" transform="translate(-132.65 -614.68)"/><path class="cls-4" d="M264.11,658.08v-5.16h5.15v5.16Zm5.15,5.15V689h-5.15V663.23Z" transform="translate(-132.65 -614.68)"/><path class="cls-4" d="M271.84,652.92H277v10.31h7.73v5.16H277v7.73a7.75,7.75,0,0,0,7.73,7.74V689a12.91,12.91,0,0,1-12.89-12.89Z" transform="translate(-132.65 -614.68)"/><path class="cls-4" d="M306,681.28h6.11a12.9,12.9,0,0,1-2.74,3.94,12.87,12.87,0,1,1,3.77-9.1,13.53,13.53,0,0,1-.24,2.58h-20a7.68,7.68,0,0,0,1.85,2.89,7.71,7.71,0,0,0,10.93,0Zm1.57-7.74a7.75,7.75,0,0,0-1.86-2.88,7.71,7.71,0,0,0-10.93,0,7.72,7.72,0,0,0-1.85,2.88Z" transform="translate(-132.65 -614.68)"/><path class="cls-4" d="M341.44,676.12a12.86,12.86,0,1,1-5.16-10.33V652.92h5.16Zm-12.89-7.73a7.73,7.73,0,1,0,5.47,2.27A7.45,7.45,0,0,0,328.55,668.39Z" transform="translate(-132.65 -614.68)"/><path class="cls-4" d="M468,652.92h5.16v10.31h7.73v5.16h-7.73v7.73a7.73,7.73,0,0,0,7.73,7.74V689A12.91,12.91,0,0,1,468,676.12Z" transform="translate(-132.65 -614.68)"/><path class="cls-4" d="M375.16,652.92h18v5.16h-18a12.89,12.89,0,1,0,0,25.78h18V689h-18a18,18,0,0,1,0-36.09Z" transform="translate(-132.65 -614.68)"/><path class="cls-4" d="M400.93,676.12V689h-5.15V676.12a12.89,12.89,0,0,1,12.89-12.89v5.16a7.75,7.75,0,0,0-7.74,7.73Z" transform="translate(-132.65 -614.68)"/><path class="cls-4" d="M437,686.43a12.91,12.91,0,0,1-12.89,12.89v-5.16a7.72,7.72,0,0,0,7.73-7.7,12.91,12.91,0,0,1-20.62-10.34V663.23h5.16v12.89a7.73,7.73,0,1,0,15.46,0V663.23H437Z" transform="translate(-132.65 -614.68)"/><path class="cls-4" d="M439.6,676.12a12.83,12.83,0,1,1,5.15,10.34v12.86H439.6Zm12.89,7.74a7.75,7.75,0,1,0-5.47-2.27A7.45,7.45,0,0,0,452.49,683.86Z" transform="translate(-132.65 -614.68)"/><path class="cls-4" d="M505.42,667a12.88,12.88,0,1,1-9.11-3.78A12.4,12.4,0,0,1,505.42,667Zm-9.11,1.38a7.75,7.75,0,1,0,5.46,2.27A7.47,7.47,0,0,0,496.31,668.39Z" transform="translate(-132.65 -614.68)"/></svg>